<svg width="16" height="16" viewBox="0 0 16 16" fill="none" xmlns="http://www.w3.org/2000/svg">
<g id="icon_24_safe">
<path id="Union" d="M8.13574 0L14.2559 1.2002C14.5471 1.30018 14.7415 1.49998 14.6445 1.7998V9.2002C14.6445 10.3001 14.2561 11.4004 13.5762 12.4004C12.9934 13.2003 12.3131 13.9 11.3418 14.5C9.78757 15.5 8.23288 16 8.13574 16H7.84473C7.74759 16 6.1929 15.5 4.63867 14.5C3.6676 13.9002 2.98798 13.2001 2.40527 12.4004C1.72534 11.5004 1.33598 10.4001 1.33594 9.2002V1.7998C1.33602 1.49987 1.53091 1.2002 1.82227 1.2002L7.94141 0H8.13574ZM8.03906 1.2998L2.59863 2.2998C2.50193 2.2998 2.50195 2.30054 2.50195 2.40039V9.2002C2.50205 11.6001 4.34787 13.4998 8.03906 14.7998H8.13574C9.20413 14.3999 10.0784 13.9999 10.8555 13.5C12.6039 12.3 13.5761 10.9001 13.5762 9.2002V2.40039C13.5762 2.40039 13.5757 2.2998 13.4785 2.2998L8.13574 1.2998H8.03906ZM10.9551 5.80078C11.2463 5.60108 11.6341 5.60101 11.7314 5.90039C11.9257 6.10039 11.9262 6.50117 11.6348 6.70117L7.26367 10.2012C7.16657 10.3011 7.06917 10.3008 6.875 10.3008C6.77786 10.3008 6.68015 10.3012 6.58301 10.2012L4.44629 8.50098C4.15489 8.30097 4.15534 7.90117 4.34961 7.70117C4.5438 7.40131 4.83469 7.40086 5.12598 7.60059L6.97168 9.00098L10.9551 5.80078Z" fill="white"/>
</g>
</svg>
