<svg width="16" height="16" viewBox="0 0 16 16" fill="none" xmlns="http://www.w3.org/2000/svg">
<g id="icon_24_invite">
<path id="Union" d="M5.40332 0.137664C5.96479 0.0617955 6.53977 0.248694 6.98926 0.652313C7.41261 1.03384 7.73845 1.40661 7.98145 1.79977C8.20256 1.47399 8.48545 1.14817 8.83887 0.808563C9.42744 0.24326 10.2589 0.018769 11.001 0.220672C11.8955 0.463736 12.558 1.1024 12.7734 1.92966C12.9793 2.72302 12.7426 3.57452 12.1533 4.15036C12.079 4.22281 12.0016 4.29152 11.9229 4.35837H13.8232C15.0237 4.35839 16 5.3347 16 6.53513V6.65134C16 7.69036 15.2681 8.55989 14.293 8.77536V14.6259C14.293 15.3174 13.7852 15.8806 13.1611 15.8808H2.83887C2.21391 15.8808 1.70605 15.3175 1.70605 14.6259V8.77536C0.731387 8.55955 0 7.69004 0 6.65134V6.53513C0 5.33469 0.976348 4.35838 2.17676 4.35837H4.0752C3.99733 4.29253 3.91997 4.2238 3.84473 4.15036C3.21103 3.53122 2.98916 2.62642 3.26562 1.78903C3.55889 0.899015 4.35866 0.281704 5.40332 0.137664ZM2.82324 14.6259C2.82324 14.7169 2.86263 14.7649 2.87207 14.7715L13.1582 14.7627C13.1388 14.7605 13.1758 14.7137 13.1758 14.6259L13.1611 8.88962H2.82324V14.6259ZM2.17676 5.47555C1.59256 5.47557 1.11719 5.95092 1.11719 6.53513V6.65134C1.11719 7.23554 1.59256 7.71089 2.17676 7.71091H13.8232C14.4074 7.71089 14.8828 7.23553 14.8828 6.65134V6.53513C14.8828 5.95093 14.4074 5.47558 13.8232 5.47555H2.17676ZM5.55566 1.24509C4.93365 1.33059 4.48549 1.65691 4.32617 2.13962C4.18525 2.56833 4.30024 3.03236 4.62598 3.35055C5.35343 4.0616 6.30807 4.28671 6.83203 4.35837H9.19531C9.20188 4.35715 9.20819 4.35447 9.21484 4.35348C10.0973 4.22399 10.8228 3.88603 11.3721 3.35055C11.6791 3.04972 11.7991 2.62377 11.6914 2.21091C11.5771 1.76983 11.2186 1.43773 10.708 1.2988C10.3428 1.20133 9.91593 1.32399 9.61328 1.61423C8.94687 2.25481 8.61426 2.78046 8.50293 3.37302C8.45276 3.63698 8.22237 3.82789 7.9541 3.82809C7.68563 3.82809 7.45449 3.63712 7.4043 3.37302C7.28936 2.76312 7.04719 2.20814 6.24219 1.48337C6.04138 1.30258 5.78411 1.21235 5.55566 1.24509Z" fill="white"/>
</g>
</svg>
