<svg width="32" height="32" viewBox="0 0 32 32" fill="none" xmlns="http://www.w3.org/2000/svg">
<g id="icon_1">
<rect id="Rectangle 321" opacity="0.1" width="32" height="32" rx="8" fill="white"/>
<g id="Frame" clip-path="url(#clip0_431_4363)">
<g id="Union">
<path fill-rule="evenodd" clip-rule="evenodd" d="M24.3228 10.5655C24.5588 10.807 24.5588 11.193 24.3246 11.4345L18.1921 17.7244L18.1683 17.7482C18.1671 17.7505 18.1652 17.7521 18.163 17.754C18.1617 17.755 18.1604 17.756 18.1591 17.7573C18.1564 17.7592 18.1537 17.7614 18.1509 17.7637C18.1482 17.766 18.1454 17.7683 18.1427 17.7701C18.1409 17.772 18.139 17.7733 18.1372 17.7747C18.1354 17.7761 18.1335 17.7774 18.1317 17.7793C18.1262 17.7848 18.1207 17.7884 18.1152 17.7921C18.1134 17.793 18.1116 17.7944 18.1097 17.7957C18.1079 17.7971 18.1061 17.7985 18.1043 17.7994C18.0969 17.8031 18.0915 17.8067 18.086 17.8104C18.0841 17.8113 18.0823 17.8127 18.0805 17.814C18.0786 17.8154 18.0768 17.8168 18.075 17.8177C18.0677 17.8232 18.0622 17.8268 18.0549 17.8305C18.053 17.8305 18.0494 17.8323 18.0475 17.8342L14.0647 20.0387C13.9696 20.0918 13.8653 20.1174 13.7628 20.1174C13.6037 20.1174 13.4463 20.057 13.3274 19.9399C13.1317 19.7478 13.0841 19.4496 13.2122 19.2063L15.3582 15.1301L15.3801 15.0917C15.3801 15.0908 15.3806 15.0904 15.381 15.0899C15.3815 15.0894 15.3819 15.089 15.3819 15.0881C15.3847 15.0835 15.3874 15.0794 15.3902 15.0753C15.3929 15.0711 15.3957 15.067 15.3984 15.0625C15.3993 15.0615 15.3998 15.0606 15.4002 15.0597C15.4007 15.0588 15.4012 15.0579 15.4021 15.057C15.4076 15.0478 15.413 15.0405 15.4185 15.0332C15.4194 15.0323 15.4199 15.0314 15.4204 15.0304C15.4208 15.0295 15.4213 15.0286 15.4222 15.0277C15.4259 15.0231 15.4295 15.019 15.4332 15.0149C15.4368 15.0108 15.4405 15.0067 15.4442 15.0021C15.4515 14.9929 15.4588 14.9856 15.4661 14.9783L21.0425 9.25742L21.0882 9.20985L21.5968 8.68844C21.7139 8.56769 21.8731 8.5 22.0414 8.5C22.2079 8.5 22.3688 8.56769 22.4859 8.68661L24.3228 10.5655ZM22.5738 11.4144C22.6049 11.4144 22.6213 11.3998 22.6268 11.3943L22.8957 11.1162L22.925 11.0869C22.9653 11.0448 22.9634 10.9534 22.9012 10.8893L22.131 10.1008C22.0926 10.0606 22.0542 10.0551 22.034 10.0551C22.0026 10.0551 21.9879 10.0701 21.9818 10.0762C21.9815 10.0765 21.9812 10.0768 21.981 10.077L21.6828 10.3826C21.6425 10.4246 21.6444 10.5161 21.7066 10.5802L22.4768 11.3687C22.5152 11.4089 22.5536 11.4144 22.5738 11.4144ZM20.8156 11.451C20.7863 11.4217 20.7589 11.3888 20.7333 11.3577L16.7797 15.4119L17.7457 16.3998L21.6992 12.3438C21.6608 12.3109 21.6224 12.2761 21.5858 12.2395L20.8156 11.451ZM16.0625 16.4584L15.2813 17.9439L16.7303 17.1426L16.0625 16.4584Z" fill="white"/>
<path d="M21.3351 22.2576C21.604 22.2576 21.8217 22.0454 21.8217 21.7856V15.3567H23.0658V21.7856C23.0658 22.7315 22.2901 23.5017 21.3351 23.5017H11.2307C10.2757 23.5017 9.5 22.7315 9.5 21.7856V11.8093C9.5 10.8634 10.2757 10.0932 11.2307 10.0932H17.72V11.3373H11.2307C10.9618 11.3373 10.7441 11.5495 10.7441 11.8093V21.7856C10.7441 22.0454 10.9618 22.2576 11.2307 22.2576H21.3351Z" fill="white"/>
</g>
</g>
</g>
<defs>
<clipPath id="clip0_431_4363">
<rect width="16" height="16" fill="white" transform="translate(9 8)"/>
</clipPath>
</defs>
</svg>
