<svg width="16" height="16" viewBox="0 0 16 16" fill="none" xmlns="http://www.w3.org/2000/svg">
<g id="icon_24_function">
<path id="Union" d="M8.00391 0.335938C8.21848 0.335989 8.43326 0.397296 8.61719 0.489258L14.1982 3.70898C14.5662 3.95431 14.8115 4.35291 14.8115 4.78223V11.2227C14.8114 11.6825 14.5661 12.0813 14.1982 12.2959L8.61719 15.5156C8.43326 15.6076 8.21848 15.6689 8.00391 15.6689C7.78933 15.6689 7.57457 15.6382 7.39062 15.5156L1.80859 12.2959C1.44077 12.0506 1.19546 11.6518 1.19531 11.2227V4.78223C1.19533 4.32237 1.44077 3.92368 1.80859 3.70898L7.39062 0.489258C7.5746 0.397294 7.78929 0.335938 8.00391 0.335938ZM2.42188 4.78223V11.2227L8.00391 14.4424L13.585 11.2227V4.78223L8.00391 1.5625L2.42188 4.78223ZM10.7969 5.6123C11.1035 5.42836 11.4711 5.52051 11.5938 5.82715C11.7777 6.10309 11.6864 6.47124 11.3799 6.65527L8.86523 8.15723C8.68131 8.24919 8.5587 8.46413 8.55859 8.67871V11.6846C8.55845 12.0218 8.28158 12.2979 7.94434 12.2979C7.60729 12.2976 7.3312 12.0216 7.33105 11.6846V8.67871C7.33098 8.46416 7.23959 8.27984 7.05566 8.15723L4.69434 6.68555C4.41843 6.50161 4.32601 6.10314 4.50977 5.82715C4.69377 5.55115 5.09314 5.45858 5.36914 5.64258L7.66895 7.08398C7.88359 7.20664 8.1285 7.20662 8.3125 7.08398L10.7969 5.6123Z" fill="white"/>
</g>
</svg>
