<svg width="32" height="32" viewBox="0 0 32 32" fill="none" xmlns="http://www.w3.org/2000/svg">
<g id="icon_3">
<rect id="Rectangle 321" opacity="0.1" width="32" height="32" rx="8" fill="white"/>
<g id="Frame" clip-path="url(#clip0_431_6014)">
<path id="Vector" d="M13.669 9.4375C14.132 9.43767 14.5812 9.59546 14.9426 9.88491L15.9088 10.658C15.9347 10.6787 15.9668 10.6901 16 10.6901C16.0332 10.6901 16.0653 10.6787 16.0912 10.658L17.0574 9.88434C17.419 9.59497 17.8684 9.43738 18.3316 9.4375H21.4612C22.0019 9.4375 22.5205 9.6523 22.9028 10.0347C23.2852 10.417 23.5 10.9356 23.5 11.4763V19.9957C23.5 20.5364 23.2852 21.055 22.9028 21.4374C22.5205 21.8197 22.0019 22.0345 21.4612 22.0345H18.331C18.1328 22.0345 17.9403 22.1025 17.7851 22.226L16.8184 22.999C16.586 23.1847 16.2974 23.2859 16 23.2859C15.7026 23.2859 15.414 23.1847 15.1816 22.999L14.2149 22.226C14.0599 22.102 13.8674 22.0345 13.669 22.0345H10.5388C9.99809 22.0345 9.47951 21.8197 9.09715 21.4374C8.7148 21.055 8.5 20.5364 8.5 19.9957V11.4763C8.5 10.9356 8.7148 10.417 9.09715 10.0347C9.47951 9.6523 9.99809 9.4375 10.5388 9.4375H13.669ZM13.669 10.603H10.5388C10.0563 10.603 9.66496 10.9938 9.66496 11.4763V19.9957C9.66496 20.4782 10.0563 20.8696 10.5388 20.8696H13.669C14.1317 20.8696 14.5806 21.0269 14.9421 21.3159L15.9088 22.0889C15.9347 22.1097 15.9668 22.121 16 22.121C16.0332 22.121 16.0653 22.1097 16.0912 22.0889L17.0579 21.3159C17.4194 21.0269 17.8683 20.8696 18.331 20.8696H21.4612C21.9437 20.8696 22.335 20.4788 22.335 19.9957V11.4763C22.335 10.9938 21.9437 10.603 21.4612 10.603H18.331C18.1328 10.603 17.9403 10.6704 17.7851 10.7944L16.8189 11.5675C16.5865 11.7535 16.2977 11.8549 16 11.8549C15.7023 11.8549 15.4135 11.7535 15.1811 11.5675L14.2149 10.7944C14.0599 10.6705 13.8674 10.603 13.669 10.603ZM14.3253 15.9912C14.4767 15.9959 14.6202 16.0593 14.7256 16.168C14.831 16.2767 14.8899 16.4222 14.8899 16.5736C14.8899 16.725 14.831 16.8705 14.7256 16.9792C14.6202 17.088 14.4767 17.1514 14.3253 17.1561H11.4857C11.3344 17.1514 11.1908 17.088 11.0854 16.9792C10.9801 16.8705 10.9211 16.725 10.9211 16.5736C10.9211 16.4222 10.9801 16.2767 11.0854 16.168C11.1908 16.0593 11.3344 15.9959 11.4857 15.9912H14.3253ZM20.5143 15.9912C20.6656 15.9959 20.8092 16.0593 20.9146 16.168C21.0199 16.2767 21.0789 16.4222 21.0789 16.5736C21.0789 16.725 21.0199 16.8705 20.9146 16.9792C20.8092 17.088 20.6656 17.1514 20.5143 17.1561H17.6747C17.5966 17.1585 17.5189 17.1453 17.4461 17.1171C17.3733 17.0889 17.3069 17.0464 17.2509 16.9921C17.1948 16.9377 17.1503 16.8727 17.1198 16.8008C17.0894 16.7289 17.0737 16.6517 17.0737 16.5736C17.0737 16.4956 17.0894 16.4183 17.1198 16.3464C17.1503 16.2745 17.1948 16.2095 17.2509 16.1552C17.3069 16.1009 17.3733 16.0583 17.4461 16.0302C17.5189 16.002 17.5966 15.9887 17.6747 15.9912H20.5143ZM14.3253 13.6612C14.4034 13.6588 14.4811 13.6721 14.5539 13.7003C14.6267 13.7284 14.6931 13.7709 14.7491 13.8253C14.8052 13.8796 14.8497 13.9446 14.8802 14.0165C14.9106 14.0884 14.9263 14.1657 14.9263 14.2437C14.9263 14.3218 14.9106 14.399 14.8802 14.4709C14.8497 14.5428 14.8052 14.6078 14.7491 14.6622C14.6931 14.7165 14.6267 14.759 14.5539 14.7872C14.4811 14.8154 14.4034 14.8286 14.3253 14.8262H11.4857C11.3344 14.8215 11.1908 14.758 11.0854 14.6493C10.9801 14.5406 10.9211 14.3951 10.9211 14.2437C10.9211 14.0923 10.9801 13.9468 11.0854 13.8381C11.1908 13.7294 11.3344 13.666 11.4857 13.6612H14.3253ZM20.5143 13.6612C20.6656 13.666 20.8092 13.7294 20.9146 13.8381C21.0199 13.9468 21.0789 14.0923 21.0789 14.2437C21.0789 14.3951 21.0199 14.5406 20.9146 14.6493C20.8092 14.758 20.6656 14.8215 20.5143 14.8262H17.6747C17.5966 14.8286 17.5189 14.8154 17.4461 14.7872C17.3733 14.759 17.3069 14.7165 17.2509 14.6622C17.1948 14.6078 17.1503 14.5428 17.1198 14.4709C17.0894 14.399 17.0737 14.3218 17.0737 14.2437C17.0737 14.1657 17.0894 14.0884 17.1198 14.0165C17.1503 13.9446 17.1948 13.8796 17.2509 13.8253C17.3069 13.7709 17.3733 13.7284 17.4461 13.7003C17.5189 13.6721 17.5966 13.6588 17.6747 13.6612H20.5143Z" fill="white"/>
</g>
</g>
<defs>
<clipPath id="clip0_431_6014">
<rect width="15" height="15" fill="white" transform="translate(8.5 8.5)"/>
</clipPath>
</defs>
</svg>
