<svg width="32" height="32" viewBox="0 0 32 32" fill="none" xmlns="http://www.w3.org/2000/svg">
<g id="icon_5">
<rect id="Rectangle 321" opacity="0.1" width="32" height="32" rx="8" fill="white"/>
<g id="Frame" clip-path="url(#clip0_439_780)">
<path id="Union" d="M21.3564 8.5C22.54 8.5 23.4998 9.45911 23.5 10.6426V21.3564C23.5 22.5401 22.5401 23.5 21.3564 23.5H10.6426C9.45911 23.4998 8.5 22.54 8.5 21.3564V10.6426C8.50016 9.45921 9.45921 8.50016 10.6426 8.5H21.3564ZM10.6455 9.57031C10.3607 9.57044 10.0873 9.6835 9.88574 9.88477C9.6843 10.0859 9.57092 10.3589 9.57031 10.6436V21.3594C9.57031 21.6458 9.68319 21.9136 9.88574 22.1162C10.0884 22.3188 10.359 22.4287 10.6455 22.4287H21.3584C21.4988 22.429 21.6378 22.4021 21.7676 22.3486C21.8976 22.295 22.0157 22.2156 22.1152 22.1162C22.2147 22.0169 22.2939 21.8993 22.3477 21.7695C22.4015 21.6396 22.4288 21.5 22.4287 21.3594V10.6436C22.4288 10.5028 22.4013 10.3635 22.3477 10.2334C22.2939 10.1033 22.2156 9.98442 22.1162 9.88477C22.0168 9.78517 21.8985 9.70635 21.7686 9.65234C21.6386 9.59835 21.4991 9.5705 21.3584 9.57031H10.6455ZM13.1895 16.2695C14.2249 16.2698 15.0645 17.1092 15.0645 18.1445C15.0644 19.1798 14.2247 20.0193 13.1895 20.0195C12.154 20.0195 11.3145 19.1799 11.3145 18.1445C11.3145 17.1091 12.1538 16.2695 13.1895 16.2695ZM13.3467 17.3555C13.1642 17.3191 12.9747 17.3479 12.8105 17.4355C12.6465 17.5232 12.5175 17.665 12.4463 17.8369C12.3751 18.0087 12.366 18.1999 12.4199 18.3779C12.4739 18.556 12.5875 18.7101 12.7422 18.8135C12.8968 18.9168 13.0825 18.9634 13.2676 18.9453C13.4066 18.9317 13.5393 18.8822 13.6523 18.8027L13.7578 18.7139C13.8327 18.6394 13.8921 18.5507 13.9326 18.4531C13.9731 18.3554 13.9944 18.2503 13.9941 18.1445C13.9941 17.9586 13.9294 17.7785 13.8115 17.6348C13.6935 17.4909 13.5292 17.3918 13.3467 17.3555ZM20.6904 17.6084C20.8322 17.6085 20.9681 17.6654 21.0684 17.7656C21.1686 17.8659 21.2255 18.0017 21.2256 18.1436C21.2256 18.2855 21.1687 18.4221 21.0684 18.5225C20.9681 18.6227 20.8322 18.6786 20.6904 18.6787H16.4033C16.2616 18.6786 16.1257 18.6227 16.0254 18.5225C15.925 18.4221 15.8682 18.2855 15.8682 18.1436C15.8682 18.0017 15.9251 17.8659 16.0254 17.7656C16.1257 17.6653 16.2615 17.6085 16.4033 17.6084H20.6904ZM14.7959 12.2539C14.9371 12.2545 15.072 12.3114 15.1719 12.4111C15.2718 12.5111 15.3286 12.6468 15.3291 12.7881C15.3295 12.9292 15.2739 13.0645 15.1748 13.165L13.0312 15.3086C12.9817 15.3581 12.9232 15.3979 12.8584 15.4248C12.7935 15.4517 12.7236 15.4658 12.6533 15.4658C12.583 15.4658 12.5132 15.4517 12.4482 15.4248C12.3833 15.3979 12.3241 15.3583 12.2744 15.3086L11.2031 14.2373C11.1027 14.1369 11.0469 14.0004 11.0469 13.8584C11.0469 13.7166 11.1029 13.5808 11.2031 13.4805C11.3035 13.3801 11.4401 13.3232 11.582 13.3232C11.7239 13.3233 11.8597 13.3802 11.96 13.4805L12.6533 14.1729L14.418 12.4082C14.5186 12.3091 14.6546 12.2534 14.7959 12.2539ZM20.6904 13.3203C20.8321 13.3204 20.9681 13.3765 21.0684 13.4766C21.1687 13.5769 21.2256 13.7135 21.2256 13.8555C21.2256 13.9974 21.1687 14.134 21.0684 14.2344C20.9681 14.3345 20.8321 14.3905 20.6904 14.3906H16.4033C16.2616 14.3905 16.1257 14.3345 16.0254 14.2344C15.925 14.134 15.8682 13.9974 15.8682 13.8555C15.8682 13.7135 15.925 13.5769 16.0254 13.4766C16.1257 13.3765 16.2616 13.3204 16.4033 13.3203H20.6904Z" fill="white"/>
</g>
</g>
<defs>
<clipPath id="clip0_439_780">
<rect width="15.0015" height="15.0015" fill="white" transform="translate(8.5 8.5)"/>
</clipPath>
</defs>
</svg>
