<svg width="32" height="32" viewBox="0 0 32 32" fill="none" xmlns="http://www.w3.org/2000/svg">
<g id="icon_2">
<rect id="Rectangle 321" opacity="0.1" width="32" height="32" rx="8" fill="white"/>
<g id="Frame" clip-path="url(#clip0_431_3484)">
<g id="Union">
<path fill-rule="evenodd" clip-rule="evenodd" d="M18.7313 9.65444C18.52 9.46971 18.2442 9.36726 17.958 9.36719C17.6579 9.36694 17.3696 9.47927 17.155 9.68009L12.0934 14.4148L12.0038 14.4931C11.3464 15.1127 11.3787 16.1406 12.13 16.7527L17.1557 21.4559L17.2382 21.5258C17.4603 21.6969 17.741 21.7826 18.0255 21.7664C18.3101 21.7502 18.5781 21.6331 18.7774 21.438L18.852 21.3577C19.0153 21.1629 19.1043 20.9206 19.1043 20.6709V18.4503L19.1732 18.4496C20.3296 18.4647 21.367 18.8216 22.3392 19.435L22.5492 19.5709L22.7414 19.704L22.9378 19.8502L23.0446 19.9325L23.5751 20.3579L23.6848 20.4403C23.7289 20.4721 23.7749 20.5014 23.8225 20.5281C24.2957 20.7944 25.0019 20.6304 25.0019 19.9099L24.9997 19.6546C24.9352 14.6783 22.9564 12.5614 19.1803 12.313L19.1043 12.3082V10.4651L19.1 10.3656C19.0741 10.0928 18.9426 9.83916 18.7313 9.65444ZM17.6705 11.1163L17.6712 13.6552L18.3874 13.6545L18.3881 13.66L18.5674 13.6614C21.5993 13.706 23.1651 14.9007 23.4992 18.3563L23.5156 18.545L23.4848 18.5238L23.2547 18.37L23.1285 18.2891C21.7032 17.3902 20.1217 16.9297 18.31 17.1184L17.6705 17.185V20.0183L13.047 15.6946C12.9487 15.5923 12.9609 15.5079 13.0592 15.4283L17.6705 11.1163Z" fill="white"/>
<path d="M13.0832 10.1746C12.9013 10.1816 12.7289 10.2546 12.6012 10.3788L8.49674 14.3875L8.40784 14.4651C7.78841 15.0483 7.79056 16.0145 8.45014 16.6334L8.5032 16.6787L12.5955 20.7808L12.6614 20.8391C12.8029 20.9485 12.9826 21.0024 13.1641 20.9897C13.3455 20.977 13.5151 20.8988 13.6386 20.7709C13.762 20.643 13.83 20.4749 13.8288 20.3008C13.8276 20.1267 13.7573 19.9595 13.6321 19.8332L9.52769 15.7187L9.43736 15.6357C9.3628 15.5547 9.37499 15.4703 9.47321 15.3907L13.6257 11.3395L13.6838 11.2743C13.7936 11.1353 13.8441 10.9615 13.825 10.7882C13.8059 10.6149 13.7186 10.455 13.5808 10.3411C13.4431 10.2271 13.2652 10.1676 13.0832 10.1746Z" fill="white"/>
</g>
</g>
</g>
<defs>
<clipPath id="clip0_431_3484">
<rect width="18" height="13.2632" fill="white" transform="translate(7 9.36719)"/>
</clipPath>
</defs>
</svg>
