<svg width="32" height="32" viewBox="0 0 32 32" fill="none" xmlns="http://www.w3.org/2000/svg">
<g id="icon_7">
<rect id="Rectangle 321" opacity="0.1" width="32" height="32" rx="8" fill="white"/>
<g id="Frame">
<path id="Vector" d="M12.8756 8C12.3753 8 11.8954 8.19875 11.5417 8.55252C11.1879 8.90629 10.9892 9.38611 10.9892 9.88642C10.9892 10.5807 11.228 11.217 11.6276 11.7204H11.1566C10.8251 11.7204 10.5482 11.7204 10.3216 11.7371C10.0861 11.7539 9.8573 11.7918 9.64075 11.8923C9.39406 12.0061 9.17305 12.1769 9.01343 12.3991C8.86162 12.6089 8.80469 12.8344 8.77902 13.0532C8.75781 13.2496 8.75781 13.4851 8.75781 13.7408V13.7943C8.75781 14.0488 8.75781 14.2855 8.78014 14.4819C8.80469 14.6996 8.86162 14.9262 9.01343 15.136C9.14291 15.3146 9.31146 15.462 9.50234 15.5714V18.2738C9.50234 19.4659 9.50234 20.418 9.6028 21.1648C9.70549 21.935 9.9265 22.5712 10.4288 23.0735C10.9311 23.5758 11.5662 23.7957 12.3376 23.8995C13.0832 24 14.0342 24 15.2286 24H16.7991C17.9912 24 18.9423 24 19.6901 23.8995C20.4603 23.7957 21.0966 23.5758 21.5989 23.0735C22.1012 22.5712 22.3211 21.935 22.4249 21.1648C22.5254 20.418 22.5254 19.4659 22.5254 18.2738V15.5714C22.7151 15.462 22.8837 15.3146 23.0143 15.136C23.165 14.9262 23.2219 14.6996 23.2464 14.4819C23.2688 14.2855 23.2688 14.0488 23.2688 13.7943V13.7408C23.2688 13.4851 23.2688 13.2496 23.2464 13.0532C23.2276 12.8184 23.1472 12.5927 23.0132 12.3991C22.8513 12.1793 22.6357 12.0048 22.3869 11.8923C22.1693 11.7918 21.9405 11.7539 21.706 11.7371C21.4783 11.7204 21.2015 11.7215 20.87 11.7215H20.3967C20.8117 11.2004 21.0372 10.5537 21.0363 9.88754C21.0363 9.38723 20.8376 8.90741 20.4838 8.55364C20.13 8.19986 19.6502 8.00112 19.1499 8.00112H18.8831C18.3134 8.00044 17.7525 8.14186 17.2512 8.41258C16.7499 8.6833 16.324 9.07477 16.0122 9.55156C15.7004 9.07493 15.2747 8.68356 14.7736 8.41285C14.2726 8.14213 13.7119 8.00062 13.1424 8.00112H12.8756V8ZM16.5703 22.8838V15.8136H20.8689C21.0676 15.8136 21.2462 15.8136 21.4069 15.8102V18.2325C21.4069 19.4759 21.4069 20.3533 21.3176 21.0163C21.2294 21.6637 21.0687 22.0232 20.8075 22.2844C20.5474 22.5444 20.1869 22.7063 19.5395 22.7934C18.8764 22.8827 17.9991 22.8827 16.7567 22.8827H16.5703V22.8838ZM15.4541 15.8136V22.8838H15.2677C14.0242 22.8838 13.1479 22.8815 12.4849 22.7934C11.8375 22.7063 11.4769 22.5444 11.2169 22.2844C10.9557 22.0232 10.7949 21.6637 10.7079 21.0163C10.6186 20.3522 10.6174 19.4759 10.6174 18.2325V15.8102C10.7782 15.8136 10.9568 15.8136 11.1555 15.8136H15.4541ZM18.085 12.8377H20.8488C21.206 12.8377 21.4426 12.8377 21.6234 12.8511C21.7237 12.8521 21.8231 12.8706 21.917 12.9058C21.9916 12.9377 22.0569 12.988 22.1068 13.052C22.1214 13.0928 22.1312 13.1351 22.1358 13.1782C22.1503 13.3043 22.1514 13.4762 22.1514 13.7675C22.1514 14.0578 22.1514 14.2297 22.1358 14.3569C22.1326 14.3928 22.1259 14.4284 22.1157 14.463L22.1079 14.483C22.058 14.547 21.9927 14.5974 21.9181 14.6293C21.8239 14.665 21.7242 14.6839 21.6234 14.6851C21.3654 14.6975 21.1071 14.7016 20.8488 14.6974H11.1756C10.8184 14.6974 10.5817 14.6974 10.4009 14.684C10.3006 14.683 10.2012 14.6645 10.1073 14.6293C10.0326 14.597 9.96731 14.5463 9.91757 14.4819C9.91534 14.4808 9.91311 14.4763 9.90753 14.463C9.89774 14.4283 9.89139 14.3928 9.88855 14.3569C9.87364 14.1608 9.86843 13.9641 9.87292 13.7675C9.87292 13.4773 9.87292 13.3043 9.88855 13.1782C9.89286 13.1352 9.90222 13.0928 9.91646 13.052C9.96633 12.988 10.0316 12.9377 10.1062 12.9058C10.2004 12.8701 10.3002 12.8512 10.4009 12.85C10.5817 12.8377 10.8195 12.8377 11.1756 12.8377H18.085ZM15.4541 11.429V11.7215H13.9204C13.4373 11.7165 12.9756 11.5211 12.6358 11.1777C12.296 10.8343 12.1054 10.3707 12.1054 9.88754C12.1054 9.46114 12.4514 9.11734 12.8756 9.11734H13.1424C14.4193 9.11734 15.4541 10.1521 15.4541 11.4279V11.429ZM19.919 9.88754C19.919 10.8944 19.1075 11.7115 18.104 11.7215H16.5703V11.429C16.5703 10.1521 17.605 9.11623 18.882 9.11623H19.1488C19.5729 9.11623 19.919 9.46226 19.919 9.88642V9.88754Z" fill="white"/>
</g>
</g>
</svg>
