<svg width="32" height="32" viewBox="0 0 32 32" fill="none" xmlns="http://www.w3.org/2000/svg">
<g id="icon_6">
<rect id="Rectangle 321" opacity="0.1" width="32" height="32" rx="8" fill="white"/>
<g id="Frame" clip-path="url(#clip0_439_9127)">
<path id="Vector" d="M23.1758 20.4973L21.7309 20.5024L21.7256 19.094C21.7256 18.7121 21.4243 18.4026 21.0248 18.4026C20.6253 18.4026 20.3013 18.7121 20.3013 19.094L20.2991 20.5074L18.8355 20.5124C18.4359 20.5124 18.112 20.8005 18.112 21.1823C18.112 21.5643 18.4359 21.8737 18.8355 21.8737L20.2969 21.8759L20.2947 23.3068C20.2947 23.6886 20.6185 23.9982 21.0182 23.9982C21.4177 23.9982 21.7416 23.6886 21.7416 23.3068L21.7362 21.878L23.1759 21.8801C23.5754 21.8801 23.8994 21.5705 23.8994 21.1886C23.8994 20.8069 23.5754 20.4973 23.1758 20.4973ZM18.8028 18.868C18.8065 18.8708 18.8102 18.8734 18.8139 18.8763V18.8721C18.8955 18.9026 18.9842 18.9195 19.077 18.9195C19.4766 18.9195 19.8005 18.6098 19.8005 18.2279L19.7939 18.1639C19.7939 18.0096 19.741 17.8671 19.6516 17.752L19.6593 17.7432C19.6463 17.7336 19.6332 17.724 19.6201 17.7146C19.5471 17.633 19.4546 17.5678 19.3494 17.5257C18.9535 17.2627 18.529 17.0362 18.0809 16.852C19.4152 15.9783 20.2907 14.5115 20.2907 12.8491C20.2907 10.1711 18.0189 8 15.2167 8C12.4143 8 10.1425 10.1711 10.1425 12.8491C10.1425 14.5121 11.0187 15.9794 12.3537 16.853C10.0705 17.7928 8.39402 19.8222 8.04057 22.2561C8.01437 22.3275 8 22.4044 8 22.4844L8.00545 22.5381L8.00527 22.5402L8.00661 22.5487C8.00661 22.9304 8.33054 23.2401 8.73009 23.2401C9.12963 23.2401 9.45363 22.9305 9.45363 22.5487L9.45278 22.5402H9.46575C9.80289 19.8998 12.0847 17.8335 14.9008 17.6887C15.0053 17.6948 15.1105 17.6983 15.2167 17.6983C15.323 17.6983 15.4284 17.6948 15.533 17.6886C16.6386 17.7453 17.6617 18.0985 18.5172 18.6661C18.5929 18.7542 18.6908 18.8241 18.8028 18.868ZM15.2153 16.3141C13.2137 16.3141 11.591 14.7633 11.591 12.8504C11.591 10.9375 13.2136 9.38683 15.2153 9.38683C17.217 9.38683 18.8396 10.9376 18.8396 12.8504C18.8396 14.7633 17.217 16.3141 15.2153 16.3141Z" fill="white"/>
</g>
</g>
<defs>
<clipPath id="clip0_439_9127">
<rect width="16" height="15.9989" fill="white" transform="translate(8 8)"/>
</clipPath>
</defs>
</svg>
