<svg width="17" height="16" viewBox="0 0 17 16" fill="none" xmlns="http://www.w3.org/2000/svg">
<g id="icon_24_home">
<path id="Vector" d="M15.6251 6.50655L9.54892 1.37321C8.97273 0.875595 8.10845 0.875595 7.53225 1.37321L1.37749 6.50655C1.24654 6.61131 1.16797 6.74226 1.16797 6.9256C1.16797 7.21369 1.40368 7.44941 1.69178 7.44941C1.82273 7.44941 1.95368 7.39702 2.03225 7.31845L2.21559 7.16131V13.0018C2.21559 14.1804 3.10606 15.1494 4.23225 15.1494H12.7704C13.8704 15.1494 14.787 14.1804 14.787 13.0018V7.16131L14.9442 7.29226C15.0489 7.37083 15.1537 7.42321 15.3108 7.42321C15.5989 7.42321 15.8346 7.1875 15.8346 6.8994C15.8346 6.76845 15.7561 6.61131 15.6251 6.50655ZM7.45368 14.1018V10.4351C7.45368 10.147 7.6894 9.91131 7.97749 9.91131H9.02511C9.31321 9.91131 9.54892 10.147 9.54892 10.4351V14.1018H7.45368ZM13.7394 13.0018C13.7394 13.6042 13.2942 14.1018 12.7442 14.1018H10.5965V10.4351C10.5965 9.57083 9.8894 8.86369 9.02511 8.86369H7.97749C7.11321 8.86369 6.40606 9.57083 6.40606 10.4351V14.1018H4.25845C3.70845 14.1018 3.26321 13.6042 3.26321 13.0018V6.29702L8.18702 2.18512C8.37035 2.02798 8.65845 2.02798 8.86797 2.18512L13.7394 6.27083V13.0018Z" fill="white"/>
</g>
</svg>
