<svg width="32" height="32" viewBox="0 0 32 32" fill="none" xmlns="http://www.w3.org/2000/svg">
<g id="icon_4">
<rect id="Rectangle 321" opacity="0.1" width="32" height="32" rx="8" fill="white"/>
<g id="Frame" clip-path="url(#clip0_431_8671)">
<path id="Vector" d="M16.0147 7.5L16.3392 7.64684C18.8815 8.79225 20.9075 9.42483 22.3993 9.54894C23.0126 9.59998 23.4869 10.0887 23.4998 10.6814L23.5 10.7004L23.4998 16.6612L23.4936 16.7005C22.9085 20.4372 20.4869 23.0206 16.304 24.4016L16.0019 24.5L15.8276 24.4444L15.6934 24.4011C11.5023 23.0296 9.08496 20.4819 8.52121 16.7997L8.5 16.6559V10.718C8.5 10.1067 8.99138 9.60005 9.62384 9.55925L9.67017 9.5561C11.2039 9.44719 13.2165 8.81453 15.6915 7.65224L16.0147 7.5ZM16.0242 8.67394L15.9403 8.71284C13.4281 9.87304 11.3515 10.5096 9.69717 10.6163C9.67042 10.6181 9.64535 10.6295 9.62705 10.6484C9.60875 10.6673 9.59857 10.6921 9.59858 10.718V16.5811L9.60844 16.6477C10.1035 19.8813 12.1869 22.1048 15.9343 23.3607L15.9992 23.3822L16.0641 23.3605C19.7628 22.1087 21.8489 19.8835 22.3912 16.6419L22.4012 16.5803L22.4015 10.7115V10.7029L22.401 10.6969C22.3989 10.6742 22.389 10.6529 22.3728 10.6363C22.3567 10.6197 22.3352 10.6087 22.3118 10.6053L22.3049 10.6045C20.9364 10.4906 19.2248 10.0087 17.161 9.16156L17.0147 9.10115C16.6863 8.96458 16.3599 8.82384 16.0354 8.67897L16.0242 8.67394ZM16.0021 12.2026C16.3056 12.2024 16.5516 12.4394 16.5514 12.7318L16.5499 15.4852L19.4082 15.4838C19.7117 15.4836 19.9576 15.7205 19.9575 16.0129C19.9573 16.3007 19.7189 16.535 19.422 16.5425L19.4076 16.5427L16.5493 16.5441L16.5478 19.2976L16.5476 19.3115C16.5398 19.5975 16.2966 19.8272 15.9979 19.8273C15.6944 19.8275 15.4485 19.5906 15.4486 19.2982L15.4501 16.5447L12.5918 16.5462C12.2883 16.5463 12.0424 16.3094 12.0425 16.017C12.0427 15.7292 12.2811 15.495 12.578 15.4875L12.5924 15.4873L15.4507 15.4858L15.4522 12.7323L15.4524 12.7184C15.4602 12.4324 15.7034 12.2028 16.0021 12.2026L16.0021 12.2026Z" fill="white"/>
</g>
</g>
<defs>
<clipPath id="clip0_431_8671">
<rect width="15" height="17" fill="white" transform="translate(8.5 7.5)"/>
</clipPath>
</defs>
</svg>
