<svg width="16" height="16" viewBox="0 0 16 16" fill="none" xmlns="http://www.w3.org/2000/svg">
<g id="icon_24_set">
<path id="Vector" d="M13.0914 2.60388H2.90969C2.73395 2.60388 2.58443 2.66614 2.45955 2.79055C2.33541 2.91506 2.27307 3.06476 2.27307 3.23976V10.2407C2.27307 10.4178 2.33551 10.5675 2.45955 10.692C2.58443 10.8164 2.73395 10.8786 2.90969 10.8786H4.81901V12.8622L7.59288 10.8786H13.0918C13.2676 10.8786 13.4172 10.8164 13.5422 10.692C13.6663 10.5675 13.7287 10.4178 13.7287 10.2408V3.23976C13.7287 3.06467 13.6662 2.91496 13.5422 2.79046C13.4172 2.66604 13.2676 2.60379 13.0918 2.60379H13.0914V2.60388ZM2.90932 1.33203H13.0911C13.6176 1.33203 14.068 1.51683 14.4409 1.89016C14.8137 2.2635 15 2.7128 15 3.23976V10.2407C15 10.7678 14.8137 11.2189 14.4409 11.5904C14.068 11.9637 13.6176 12.1504 13.0911 12.1504H7.99972L3.54557 15.332V12.1505H2.90932C2.38236 12.1505 1.9324 11.9638 1.55944 11.5905C1.18648 11.2189 1 10.7677 1 10.2407V3.23976C1 2.71271 1.18648 2.2635 1.55944 1.89016C1.9324 1.51683 2.38236 1.33203 2.90932 1.33203Z" fill="white"/>
</g>
</svg>
