<svg width="45" height="38" viewBox="0 0 45 38" fill="none" xmlns="http://www.w3.org/2000/svg">
<path id="Subtract" d="M16.1644 0.488754C20.1481 0.389165 24.1338 0.389165 28.1175 0.488754H28.1146L28.2377 0.49266C31.3564 0.568731 33.8675 0.632122 35.8812 0.978989C37.984 1.34414 39.7 2.04162 41.1459 3.48094C42.5854 4.91409 43.2856 6.58728 43.6478 8.6411C43.9886 10.5977 44.0412 13.0263 44.1087 16.0327V16.1548C44.1517 18.1751 44.1517 20.1833 44.1087 22.2036L44.1058 22.3227C44.0444 25.3352 43.9887 27.7607 43.6449 29.7173C43.2857 31.7741 42.5885 33.4473 41.1459 34.8774C39.7 36.3167 37.9871 37.0142 35.8812 37.3794C33.8675 37.7262 31.3564 37.7895 28.2377 37.8686H28.1175C24.1338 37.9682 20.1482 37.9682 16.1644 37.8686L16.0472 37.8657C12.9254 37.7896 10.4143 37.7263 8.40367 37.3794C6.29779 37.0142 4.58196 36.3167 3.13609 34.8774C1.69648 33.4443 0.996381 31.771 0.634139 29.7202C0.293396 27.7606 0.240736 25.3321 0.173201 22.3257V22.2036C0.129765 20.1876 0.129767 18.1708 0.173201 16.1548L0.177108 16.0356C0.238503 13.0232 0.293257 10.5977 0.637069 8.6411C0.996234 6.58423 1.69344 4.91409 3.13609 3.48094C4.58196 2.04162 6.29472 1.34414 8.40367 0.978989C10.4143 0.632103 12.9254 0.567868 16.0472 0.488754H16.1644ZM39.8216 10.6235C39.0783 9.5085 37.6198 9.15634 36.4603 9.77L36.2328 9.90575L22.139 19.3013L8.04527 9.90575L7.81773 9.77C6.65828 9.15634 5.19975 9.5085 4.4564 10.6235C3.71299 11.7386 3.94867 13.221 4.96129 14.0552L5.17418 14.2124L20.7035 24.5659L20.8695 24.6675C21.7133 25.1427 22.7596 25.109 23.5746 24.5659L39.1039 14.2124L39.3168 14.0552C40.3294 13.221 40.565 11.7386 39.8216 10.6235Z" fill="white"/>
</svg>
